HIERARCHY
ROOT Hips
{
	OFFSET -14.64140 90.27770 -84.91600
	CHANNELS 6 Xposition Yposition Zposition Zrotation Xrotation Yrotation
	JOINT Spine
	{
		OFFSET 0.00000 13.20850 -1.60436
		CHANNELS 3 Zrotation Xrotation Yrotation
		JOINT Spine1
		{
			OFFSET 0.00000 8.61716 0.00000
			CHANNELS 3 Zrotation Xrotation Yrotation
			JOINT Spine2
			{
				OFFSET 0.00000 8.61717 0.00000
				CHANNELS 3 Zrotation Xrotation Yrotation
				JOINT Spine3
				{
					OFFSET 0.00000 8.61717 0.00000
					CHANNELS 3 Zrotation Xrotation Yrotation
					JOINT Neck
					{
						OFFSET 0.00000 11.07920 1.10792
						CHANNELS 3 Zrotation Xrotation Yrotation
						JOINT Neck1
						{
							OFFSET 0.00000 7.08032 0.00000
							CHANNELS 3 Zrotation Xrotation Yrotation
							JOINT Head
							{
								OFFSET 0.00000 7.08031 0.00000
								CHANNELS 3 Zrotation Xrotation Yrotation
								End site
								{
									OFFSET 0.00000 0.00000 0.00000
								}
							}
						}
					}
					JOINT RightShoulder
					{
						OFFSET -0.01000 7.91373 5.19711
						CHANNELS 3 Zrotation Xrotation Yrotation
						JOINT RightArm
						{
							OFFSET -18.41580 0.00000 0.00000
							CHANNELS 3 Zrotation Xrotation Yrotation
							JOINT RightForeArm
							{
								OFFSET -29.11090 0.00000 0.00000
								CHANNELS 3 Zrotation Xrotation Yrotation
								JOINT RightHand
								{
									OFFSET -24.65040 0.00000 0.00000
									CHANNELS 3 Zrotation Xrotation Yrotation
									JOINT RightHandThumb1
									{
										OFFSET -5.35114 -0.85590 3.97906
										CHANNELS 3 Zrotation Xrotation Yrotation
										JOINT RightHandThumb2
										{
											OFFSET -4.52789 0.00000 0.00000
											CHANNELS 3 Zrotation Xrotation Yrotation
											JOINT RightHandThumb3
											{
												OFFSET -2.46976 0.00000 0.00000
												CHANNELS 3 Zrotation Xrotation Yrotation
												End site
												{
													OFFSET 0.00000 0.00000 0.00000
												}
											}
										}
									}
									JOINT RightHandIndex1
									{
										OFFSET -14.26970 0.00000 2.88139
										CHANNELS 3 Zrotation Xrotation Yrotation
										JOINT RightHandIndex2
										{
											OFFSET -5.48836 0.00000 0.00000
											CHANNELS 3 Zrotation Xrotation Yrotation
											JOINT RightHandIndex3
											{
												OFFSET -3.01859 0.00000 0.00000
												CHANNELS 3 Zrotation Xrotation Yrotation
												End site
												{
													OFFSET 0.00000 0.00000 0.00000
												}
											}
										}
									}
									JOINT RightHandMiddle1
									{
										OFFSET -14.26970 0.00000 -0.09147
										CHANNELS 3 Zrotation Xrotation Yrotation
										JOINT RightHandMiddle2
										{
											OFFSET -6.17441 0.00000 0.00000
											CHANNELS 3 Zrotation Xrotation Yrotation
											JOINT RightHandMiddle3
											{
												OFFSET -3.56743 0.00000 0.00000
												CHANNELS 3 Zrotation Xrotation Yrotation
												End site
												{
													OFFSET 0.00000 0.00000 0.00000
												}
											}
										}
									}
									JOINT RightHandRing1
									{
										OFFSET -12.69180 0.00000 -3.06433
										CHANNELS 3 Zrotation Xrotation Yrotation
										JOINT RightHandRing2
										{
											OFFSET -5.62556 0.00000 0.00000
											CHANNELS 3 Zrotation Xrotation Yrotation
											JOINT RightHandRing3
											{
												OFFSET -3.56744 0.00000 0.00000
												CHANNELS 3 Zrotation Xrotation Yrotation
												End site
												{
													OFFSET 0.00000 0.00000 0.00000
												}
											}
										}
									}
									JOINT RightHandPinky1
									{
										OFFSET -11.11390 0.00000 -6.03719
										CHANNELS 3 Zrotation Xrotation Yrotation
										JOINT RightHandPinky2
										{
											OFFSET -4.52789 0.00000 0.00000
											CHANNELS 3 Zrotation Xrotation Yrotation
											JOINT RightHandPinky3
											{
												OFFSET -2.46976 0.00000 0.00000
												CHANNELS 3 Zrotation Xrotation Yrotation
												End site
												{
													OFFSET 0.00000 0.00000 0.00000
												}
											}
										}
									}
								}
							}
						}
					}
					JOINT LeftShoulder
					{
						OFFSET 0.01000 7.91373 5.19711
						CHANNELS 3 Zrotation Xrotation Yrotation
						JOINT LeftArm
						{
							OFFSET 18.41580 0.00000 0.00000
							CHANNELS 3 Zrotation Xrotation Yrotation
							JOINT LeftForeArm
							{
								OFFSET 29.11090 0.00000 0.00000
								CHANNELS 3 Zrotation Xrotation Yrotation
								JOINT LeftHand
								{
									OFFSET 24.65040 0.00000 0.00000
									CHANNELS 3 Zrotation Xrotation Yrotation
									JOINT LeftHandThumb1
									{
										OFFSET 5.35114 -0.85590 3.97906
										CHANNELS 3 Zrotation Xrotation Yrotation
										JOINT LeftHandThumb2
										{
											OFFSET 4.52789 0.00000 0.00000
											CHANNELS 3 Zrotation Xrotation Yrotation
											JOINT LeftHandThumb3
											{
												OFFSET 2.46977 0.00000 0.00000
												CHANNELS 3 Zrotation Xrotation Yrotation
												End site
												{
													OFFSET 0.00000 0.00000 0.00000
												}
											}
										}
									}
									JOINT LeftHandIndex1
									{
										OFFSET 14.26970 0.00000 2.88139
										CHANNELS 3 Zrotation Xrotation Yrotation
										JOINT LeftHandIndex2
										{
											OFFSET 5.48836 0.00000 0.00000
											CHANNELS 3 Zrotation Xrotation Yrotation
											JOINT LeftHandIndex3
											{
												OFFSET 3.01859 0.00000 0.00000
												CHANNELS 3 Zrotation Xrotation Yrotation
												End site
												{
													OFFSET 0.00000 0.00000 0.00000
												}
											}
										}
									}
									JOINT LeftHandMiddle1
									{
										OFFSET 14.26970 0.00000 -0.09147
										CHANNELS 3 Zrotation Xrotation Yrotation
										JOINT LeftHandMiddle2
										{
											OFFSET 6.17440 0.00000 0.00000
											CHANNELS 3 Zrotation Xrotation Yrotation
											JOINT LeftHandMiddle3
											{
												OFFSET 3.56744 0.00000 0.00000
												CHANNELS 3 Zrotation Xrotation Yrotation
												End site
												{
													OFFSET 0.00000 0.00000 0.00000
												}
											}
										}
									}
									JOINT LeftHandRing1
									{
										OFFSET 12.69180 0.00000 -3.06433
										CHANNELS 3 Zrotation Xrotation Yrotation
										JOINT LeftHandRing2
										{
											OFFSET 5.62556 0.00000 0.00000
											CHANNELS 3 Zrotation Xrotation Yrotation
											JOINT LeftHandRing3
											{
												OFFSET 3.56744 0.00000 0.00000
												CHANNELS 3 Zrotation Xrotation Yrotation
												End site
												{
													OFFSET 0.00000 0.00000 0.00000
												}
											}
										}
									}
									JOINT LeftHandPinky1
									{
										OFFSET 11.11390 0.00000 -6.03719
										CHANNELS 3 Zrotation Xrotation Yrotation
										JOINT LeftHandPinky2
										{
											OFFSET 4.52789 0.00000 0.00000
											CHANNELS 3 Zrotation Xrotation Yrotation
											JOINT LeftHandPinky3
											{
												OFFSET 2.46976 0.00000 0.00000
												CHANNELS 3 Zrotation Xrotation Yrotation
												End site
												{
													OFFSET 0.00000 0.00000 0.00000
												}
											}
										}
									}
								}
							}
						}
					}
					JOINT pCube4
					{
						OFFSET 0.00000 10.91090 1.10792
						CHANNELS 3 Zrotation Xrotation Yrotation
						End site
						{
							OFFSET 0.00000 0.00000 0.00000
						}
					}
				}
			}
		}
	}
	JOINT RightUpLeg
	{
		OFFSET -9.98441 0.00000 0.00000
		CHANNELS 3 Zrotation Xrotation Yrotation
		JOINT RightLeg
		{
			OFFSET 0.00000 -42.11790 0.00000
			CHANNELS 3 Zrotation Xrotation Yrotation
			JOINT RightFoot
			{
				OFFSET 0.00000 -45.00020 -0.00001
				CHANNELS 3 Zrotation Xrotation Yrotation
				JOINT RightForeFoot
				{
					OFFSET 0.00000 -3.74820 0.00000
					CHANNELS 3 Zrotation Xrotation Yrotation
					JOINT RightToeBase
					{
						OFFSET 0.00000 0.06325 14.43120
						CHANNELS 3 Zrotation Xrotation Yrotation
						End site
						{
							OFFSET 0.00000 0.00000 0.00000
						}
					}
				}
			}
		}
	}
	JOINT LeftUpLeg
	{
		OFFSET 9.98441 0.00000 0.00000
		CHANNELS 3 Zrotation Xrotation Yrotation
		JOINT LeftLeg
		{
			OFFSET 0.00000 -42.11800 0.00000
			CHANNELS 3 Zrotation Xrotation Yrotation
			JOINT LeftFoot
			{
				OFFSET 0.00000 -45.00070 0.00000
				CHANNELS 3 Zrotation Xrotation Yrotation
				JOINT LeftForeFoot
				{
					OFFSET 0.00000 -3.74824 0.00000
					CHANNELS 3 Zrotation Xrotation Yrotation
					JOINT LeftToeBase
					{
						OFFSET 0.00000 0.06325 14.43110
						CHANNELS 3 Zrotation Xrotation Yrotation
						End site
						{
							OFFSET 0.00000 0.00000 0.00000
						}
					}
				}
			}
		}
	}
}
MOTION
Frames: 4
Frame Time: 0.050000
0.019003009439542213 0.03270177260447848 0.02979379434687885 -0.0024055518310464943 -0.03600160965369716 -0.00024973855479158295 -3.366827332667273 -0.6739108512131003 -0.7775461256059794 -0.9138004284548884 3.5440373237708935 0.37000492680146285 -1.1463790907435831 -2.0826739349567736 -1.541281108319973 -0.27678100284136353 0.23891324452164264 -0.8388374887474012 -0.3929531884285372 12.153627211079943 0.9788375323029531 0.21943585964584988 0.21305744071045601 1.3707359278012157 0.007875167833962948 -14.28994500644793 0.11149587983468193 -3.3660344819380437 1.4218449648993237 -14.291263541155205 73.10942729937723 26.04675839973092 3.2300646529115515 35.2701923574343 6.649389129044819 87.25160574290523 23.242838024683415 -0.3173058619579254 -3.8289244564892506 4.496143384022179 -0.13861881847237997 -1.5953681723384459 -0.005752881334852604 0.03929384215516193 -56.24280154427443 -0.0056104010869237764 0.03997087509109232 -56.216501684520445 -38.76649581917791 -0.013060903427270048 -0.02338200612957387 0.04726587220187405 -0.022334191896271824 0.030122087191912453 0.018617526566961192 -0.01793023338375439 -0.02232575120981541 -36.71999854837745 -0.01749520882046194 0.031418090189261234 -0.013519733531251594 0.030292041652837307 0.04531726464070637 -0.035352480260011 0.0035829720407378404 0.036192703026375776 -19.736118614176 0.0040153439810726955 0.002462768725995037 -0.048458767865774736 -0.025795879058535 0.01762057962146364 -0.04569995992404682 -0.019596084346716055 -0.004713630236933553 24.066752777425698 -0.01957265935349566 0.037581336863831506 28.8728650020069 -0.0031457284937375157 0.04456134285642027 28.905065447381073 -0.04268432631527944 0.03066742694332403 6.209544956310281 1.4945274938416793 12.355925703025365 -73.64567339609613 25.039885815736042 -8.191291912314524 -92.61814031009135 9.438545217824453 -106.77275913394303 -20.296926857611314 -1.641765204345472 0.7584493820452495 -0.4702346721148578 0.06273291043192301 -8.13497317637621 -0.014334597314280282 0.03753692863464522 44.60105477541215 -0.02831923188648165 -0.005954923138532513 44.58564953706402 12.484044303206502 -0.0014869545872149476 -0.007580114174332505 -0.010642039110270493 -0.01597654244390596 0.04990145007750384 -0.04107557647017268 -0.03998038725873876 -0.01624777031875717 11.104919353029397 0.02012311189551093 -0.012596931836387404 -0.03272870859515786 -0.034052919269177036 0.030702374867075093 0.017069602664563567 -0.013978389580976084 0.037699726694122325 4.778731614923863 0.02222357957920631 0.021214770010431996 0.015542064948522045 0.016771867432138685 -0.03157957840405468 -0.0043328588677630005 -0.046404946311301445 0.003745627087110204 -5.6330719294849745 -0.02852916087623523 -0.005662960500307403 -6.725918467488183 -0.016895108681341673 -0.01580538273817514 -6.719593294027126 -0.036277753237548616 -0.013735083432629424 0.0009597263432434709 -0.0008120413337906776 -0.023552561074893598 8.010993436427745 3.5022050761557444 -19.194198159744587 0.024161624464824977 10.428102571003583 0.01975728318022367 -5.66394821486075 -15.656069432936205 3.1886993806276354 -0.027816391745264183 0.0097012778073793 0.015824356205382202 0.0483275293944932 4.665323324994816 -0.014974287653484025 12.428983023217894 -8.26683459107669 6.899520189917684 -0.008418816651329722 46.34107377637006 -0.0005543999286122335 -4.365926282671666 -14.735180621811356 -3.8243765750433276 -0.02953265185436807 0.01913036245300837 -0.043343943306666445 -0.016522425810251592 -10.783292855823412 0.016698659262514393 
-0.0048612164707209325 -0.02741108991123958 -0.00934664553615555 0.015015552337149657 -0.040520136207634644 -0.004365294047634703 -3.3377886998047424 -0.6282451016106677 -0.7835600430011969 -0.8712868183090146 3.513210207230702 0.3284098766495279 -1.177542586546244 -2.0828166182200394 -1.4945840582856145 -0.18412225227259452 0.28767434100974953 -0.9115903705606676 -0.37594271001634577 12.250712684606587 1.125177325696915 0.25385199812901127 0.35131379651127886 1.7675488970698243 -0.1181933097935675 -14.103429483900566 0.1713545891337085 -3.3295324139565956 1.4393523028107371 -14.265065171002476 72.72920894808281 25.50274509960387 3.658404117389091 36.17173717062974 5.468587676448219 90.85375569023067 22.183569754124665 -0.347762558725935 -3.7172398267486115 4.548002368096686 -0.13994245048589796 -1.6298230407921297 -0.028916216446256218 0.007243853701674378 -56.25509311845962 -0.004783386849865346 0.03265419305729917 -56.237903030020505 -38.81376869056482 -0.03938319743681184 0.040912119510827565 0.03171895490339662 0.024298731838679026 0.008905214410928746 -0.023631355162555847 0.023351968587701482 -0.04073619197843534 -36.72381381587728 0.044237105274585846 -0.04741477100979682 -0.020884354868419674 0.009641826924254493 -0.04097683885873905 -0.005886207493594932 -0.008470118436600995 0.03877762185482071 -19.708957086148104 0.026339160904768157 -0.00692235527639648 -0.03930406884270785 -0.03579433594047543 -0.03245965724914392 0.046718617666369644 0.04326380872974881 -0.02532615587884823 24.070608491960854 0.0456324188239593 0.016325496214667 28.887929631141397 0.01866417008766224 -0.04123617498438113 28.904063671053898 -0.011451596981193158 -0.017860418538555804 6.036834560893481 1.3716513977208178 12.392796300935826 -73.38844071103365 25.46281746761842 -7.999006442189694 -90.89523511404492 8.946041018717219 -105.61122541826238 -19.11638329146365 -0.8061829854122841 0.19537836817940193 -0.4998293684995896 0.11179482242644058 -8.137050896904132 -0.00899830868889002 0.035714762603992777 44.54569299489593 -0.0069464986732375965 -0.0030528895516706697 44.61356911940892 12.458226235470907 0.02520833884714278 -0.00527569917901953 -0.015602311212281145 0.005487441598252194 -0.013464257475308071 0.016608380708261723 0.029082392365666752 0.0068923569750423365 11.095311378967132 0.003255094135846659 0.005702727821575892 0.04385563997035101 -0.04181320666360523 -0.028264396781947563 0.021960466151119074 -0.012431674304745335 0.01416093379734192 4.7483638130665415 0.001489312967770909 0.04362564593238603 0.03525264997897424 0.017608578956875308 -0.012061355760363837 -0.03011095702907402 -0.02972292555544116 -0.04878501477672924 -5.592039516487984 0.018485599160742477 -0.015270426911279571 -6.70386819922775 0.015995638098741886 0.016619768593422575 -6.743437203479716 -0.02805102227225518 0.014253680757225683 0.04523714270655743 -0.02638306500569067 0.004911612053545901 8.018909235153947 3.4536253804191817 -19.2356649272606 -0.01068394423939166 10.378198926092576 -0.005626715454987396 -5.586348157896991 -15.707433375769254 3.2123567087059266 -0.029792170768141533 0.004073717764118877 0.03847115954235757 -0.012932612594991101 4.688357766176307 -0.029733693224125904 12.506547912518839 -8.199398709633169 6.927287191026125 0.004850208958419478 46.394458993106426 0.03368783316898007 -4.315497901201814 -14.736972549778113 -3.813749560981345 0.00796983827634042 0.032086431225095684 0.04761564514405525 0.035498303660253416 -10.747464059610099 0.022610020353002427 
0.029754775546995644 0.04284628146113786 0.011042180344010092 -0.04623436285069809 0.04183102229987067 0.04496135846966512 -3.2996129843713096 -0.6072046070426802 -0.8254119995086541 -0.8799050830365744 3.609358818928785 0.39844053893433584 -1.1421596514419434 -2.0030658554554535 -1.5303441002604896 -0.1265705815917364 0.3277835344641981 -0.9152911214011058 -0.37562241038157995 12.305105424137462 1.2790829765257181 0.2354018346392495 0.47180980773948805 2.019980307572428 -0.18042337395646957 -13.941906734739039 0.19004695882676265 -3.34622156684385 1.4535594160800769 -14.379612155308621 72.27864456103318 25.33022901757647 3.7776405074030497 35.713030762904324 4.558090143874724 92.89549181420422 21.296084163200543 -0.3734823496323478 -3.6885441397196423 4.527231367484889 -0.11405410373260973 -1.5985901468825743 -0.01580441231450511 -0.011224037422643768 -56.21566515577479 -0.03763873938798031 0.028496748123788152 -56.2045749013067 -38.799586520997636 0.005548030897566421 0.04571663743713109 -0.01083513409280976 -0.025721711069136566 -0.023255301203664397 -0.0493610884431097 0.04210532909195325 0.04804619971735399 -36.684843224001874 0.04007891551395126 -0.029811645805266247 -0.005053455077326587 -0.012150553711517187 -0.00561677802364289 0.013636125637686583 0.026808091966154916 0.026375817669507255 -19.777396455324098 0.046981051931962725 -0.00486267054503851 0.007661441139106898 0.017775329741136152 0.034966330122673674 0.0027822264495755786 0.026138388645290913 -0.011015694947691617 24.04006886058968 0.037551421256567186 0.04666998484704015 28.83744878302966 -0.0019220806602770414 -0.025194307847481442 28.83421469371429 -0.010489973717868738 0.03890738393350815 5.955786366545943 1.4064817225283204 12.459397635434236 -73.03727307130279 25.545221847346742 -7.899063681210057 -86.4867759426557 8.978667815378653 -103.04598527722254 -17.46882635674414 -0.14413556895329954 -0.17983809389748995 -0.46284785352934715 0.029245035450827954 -8.132005194381419 -0.020288960997843043 0.006408375345561645 44.58122974086371 -0.049171474116668806 -0.03667807581346702 44.581791534711826 12.47099663893867 -0.0006118387072911252 0.00411655589342813 -0.012640377428782634 -0.014838945153191598 -0.010224897058672014 0.019928247413012003 0.016700086108660393 -0.004702518990977521 11.121818946003843 -0.0178009963869576 0.017494407485550534 0.021916842360169896 0.033864782331632155 0.016193601859365563 0.029159525198060927 0.015050911090835721 0.0135887885281869 4.764679361998187 -0.029673418531780897 -0.02717728212766416 0.012494284206454149 0.04109871754067873 -0.01220929216479011 -0.026268180446512815 0.008379912874816327 0.0454969448538093 -5.5730758861475325 -0.00034477426234236935 -0.01947309038950011 -6.7498849329771495 0.015492002071670265 -0.016408947485430734 -6.719290097816266 -0.010837582831147276 -0.011642711761154875 8.679073358169351e-06 -0.00881458699573747 -0.02243228498279751 7.9946573414402184 3.528472696205181 -19.241817304156154 -0.0027933696287746135 10.356693164457617 0.04671954042464031 -5.5849591975057855 -15.666394028396295 3.1794325281649862 -0.012712769421836217 0.0010359881999194944 0.022983930195241718 0.016447164699797668 4.6660396237627175 -0.022625525824085904 12.415117263064516 -8.239015604930506 6.9155868119139585 0.04259566636431469 46.42895802158128 0.004607918709610844 -4.297209131826439 -14.771269298451895 -3.841855704485068 0.04093185205218028 -0.025061740802616635 -0.013294291259503873 0.03753851726125255 -10.768724319586683 -0.030941972880646595 
-0.01104332230310056 -0.009600634895565235 -0.010737709061281481 0.04746033166836622 -0.010674659752928445 0.016465257787243708 -3.1622978802197417 -0.6467011050885949 -0.8599481089664438 -0.9914707621624038 3.637619537821676 0.3347256835072723 -1.2135583419349376 -2.0048126299337277 -1.4917542427642283 -0.11593102500065797 0.34715725796243385 -0.8213126855655603 -0.46336508435305107 12.471667028198512 1.3670405375139814 0.1421415352799933 0.5353368590310033 2.0333186401588272 -0.22462258564208726 -13.851343783816322 0.21522838592120117 -3.3713010329146313 1.4281193029642498 -14.554106861381493 72.02262512733954 25.688986303158487 3.4755136203814803 33.743680791493745 4.175909716930287 92.85288443360099 20.594337642669878 -0.2792643080956646 -3.8915425449927437 4.53611760085638 -0.16675312783055105 -1.6003720258703937 -0.03450568133758422 -0.0051711463827117145 -56.22428416646268 0.043228666427418336 0.01691863819214297 -56.23988595100183 -38.75772376286773 -0.012006641536505758 -0.026885922367030413 0.011354837353085763 -0.0012658897818379846 0.018833515203558842 0.041147661603723525 0.012057404342699545 0.049655339238641474 -36.696293687107506 -0.03369843753380839 -0.020263752533256896 0.04104824015309422 0.03272846581386802 -0.03544020490357279 0.007896853549404375 -0.009377823492662977 -0.015800220792542966 -19.74788723884162 0.022699947468430865 0.017029337888778383 0.02127345306532446 -0.00035666242574846133 0.025973011103061782 0.021371438110899667 -0.005852738116355154 -0.029195621032656993 24.0632667431397 0.010960737051158657 0.009615203092248139 28.836495924774194 0.010097862941552566 -0.009151714359695895 28.902098100635722 0.019205121729987285 -0.0018998473025501857 5.9886268222943935 1.3577945471097752 12.682065317829535 -72.47978680928934 25.657267523452617 -7.666545688179419 -77.6363023833757 9.836227267203128 -97.5196383321993 -15.579568158701301 0.08251337975239538 -0.20761547457729743 -0.5181835791994933 0.08337255988254073 -8.083553126238925 0.004412248211879724 -0.0029318664155442604 44.525471820440956 0.010787382506609173 -0.02194609395089132 44.579877651785374 12.454729915670297 0.02508045716522416 0.010486419031593582 -0.004905488672262558 0.01822702371634125 -0.020238003667634785 0.019114100231387963 0.019234654070748113 -0.036823777286218315 11.065198681713222 0.031325232464177545 0.03981611062882281 0.014896779532390709 -0.026576641520528667 -0.0002506053930889484 -0.013480389836318205 -0.03656180178772513 -0.008531038676113378 4.795516344841406 -0.025208529412649554 -0.00289921213927119 0.00944435147294861 -0.02496195733986409 -0.04667482007759279 -0.020123752509742385 -0.010200262358994596 0.04198647408286789 -5.621475155105905 -0.021317331735678874 -0.04160601511872189 -6.692076801513045 -0.008467695915728142 0.03706676730535641 -6.679968440424683 0.021954043606413978 0.023340378403462845 -0.019292170970025266 0.005719313331655813 0.007247217232110065 8.087153453845717 3.4884363341365745 -19.206275518161668 -0.04533786782914003 10.380917456323486 0.00028329780867203044 -5.665744887403004 -15.633212463589171 3.1640695054946697 0.0023828742707793092 -0.011338683880862416 0.028018537455829225 0.015040598961077602 4.711990837959897 -0.03178960363938436 12.468067871679883 -8.259025875087778 6.852951744067405 0.03931348956322113 46.39497073509531 -0.009441860512186349 -4.31846900124767 -14.792839227926798 -3.83066614103777 0.047682425996925085 -0.045283171852551526 -0.0005766230756580198 0.005683083329126498 -10.719899984766041 -0.041818623106464003 
